<svg xmlns="http://www.w3.org/2000/svg" xmlns:xlink="http://www.w3.org/1999/xlink"
     viewBox="0 0 320 420" width="320" height="420">
  <defs>

    <!-- ════ FILTERS ════════════════════════════════════════════════ -->
    <!-- Strong glow for iris -->
    <filter id="irisGlow" x="-80%" y="-80%" width="260%" height="260%">
      <feGaussianBlur stdDeviation="5" result="b1"/>
      <feGaussianBlur stdDeviation="2" result="b2"/>
      <feMerge>
        <feMergeNode in="b1"/>
        <feMergeNode in="b2"/>
        <feMergeNode in="SourceGraphic"/>
      </feMerge>
    </filter>

    <!-- Soft bloom on node dots -->
    <filter id="nodeBloom" x="-150%" y="-150%" width="400%" height="400%">
      <feGaussianBlur stdDeviation="3.5" result="blur"/>
      <feMerge>
        <feMergeNode in="blur"/>
        <feMergeNode in="SourceGraphic"/>
      </feMerge>
    </filter>

    <!-- Hair depth shadow -->
    <filter id="hairDepth" x="-4%" y="-4%" width="108%" height="108%">
      <feDropShadow dx="3" dy="5" stdDeviation="6" flood-color="#000" flood-opacity="0.65"/>
    </filter>

    <!-- Rim light bloom (right edge of face) -->
    <filter id="rimBloom" x="-15%" y="-15%" width="130%" height="130%">
      <feGaussianBlur stdDeviation="8" result="blur"/>
      <feColorMatrix type="matrix"
        values="0 0 0 0 0.29   0 0 0 0 0.59   0 0 0 0 1   0 0 0 0.4 0" result="tinted"/>
      <feMerge>
        <feMergeNode in="tinted"/>
        <feMergeNode in="SourceGraphic"/>
      </feMerge>
    </filter>

    <!-- Cheek SSS glow -->
    <filter id="sssBloom" x="-30%" y="-30%" width="160%" height="160%">
      <feGaussianBlur stdDeviation="6" result="blur"/>
      <feMerge>
        <feMergeNode in="blur"/>
        <feMergeNode in="SourceGraphic"/>
      </feMerge>
    </filter>

    <!-- ════ GRADIENTS ═══════════════════════════════════════════════ -->

    <!-- Background: deep dark + blue aura -->
    <radialGradient id="bgAura" cx="50%" cy="40%" r="52%">
      <stop offset="0%"   stop-color="#142038" stop-opacity="0.92"/>
      <stop offset="55%"  stop-color="#0B1525" stop-opacity="0.55"/>
      <stop offset="100%" stop-color="#0F0F11" stop-opacity="0"/>
    </radialGradient>

    <!-- Key light (upper-left cool white) on face -->
    <radialGradient id="keyLight" cx="28%" cy="22%" r="60%">
      <stop offset="0%"   stop-color="#E8F2FF" stop-opacity="0.55"/>
      <stop offset="50%"  stop-color="#D0DFEE" stop-opacity="0.25"/>
      <stop offset="100%" stop-color="#B8CCE0" stop-opacity="0"/>
    </radialGradient>

    <!-- Shadow fill for right/dark side of face -->
    <linearGradient id="faceShadow" x1="0%" y1="0%" x2="100%" y2="0%">
      <stop offset="0%"   stop-color="#8AAABF" stop-opacity="0.4"/>
      <stop offset="40%"  stop-color="#A0BCCC" stop-opacity="0.1"/>
      <stop offset="100%" stop-color="#7090A8" stop-opacity="0.45"/>
    </linearGradient>

    <!-- Main skin (lit) -->
    <linearGradient id="skinMain" x1="20%" y1="0%" x2="80%" y2="100%">
      <stop offset="0%"   stop-color="#DAE6F2"/>
      <stop offset="35%"  stop-color="#CAD6E4"/>
      <stop offset="75%"  stop-color="#BCCAD8"/>
      <stop offset="100%" stop-color="#AABACA"/>
    </linearGradient>

    <!-- Neck / chin skin — slightly warmer (SSS effect) -->
    <linearGradient id="skinNeck" x1="35%" y1="0%" x2="65%" y2="100%">
      <stop offset="0%"   stop-color="#C8D6E6"/>
      <stop offset="100%" stop-color="#A0B4C8"/>
    </linearGradient>

    <!-- SSS cheek warmth (very subtle pink-blue) -->
    <radialGradient id="sssLeft" cx="25%" cy="60%" r="55%">
      <stop offset="0%"   stop-color="#C8B8CC" stop-opacity="0.28"/>
      <stop offset="100%" stop-color="#C8B8CC" stop-opacity="0"/>
    </radialGradient>
    <radialGradient id="sssRight" cx="75%" cy="60%" r="55%">
      <stop offset="0%"   stop-color="#B8C8D8" stop-opacity="0.18"/>
      <stop offset="100%" stop-color="#B8C8D8" stop-opacity="0"/>
    </radialGradient>

    <!-- Rim light (right side) -->
    <linearGradient id="rimLight" x1="60%" y1="0%" x2="100%" y2="0%">
      <stop offset="0%"   stop-color="#3070C0" stop-opacity="0"/>
      <stop offset="70%"  stop-color="#4080D0" stop-opacity="0.18"/>
      <stop offset="100%" stop-color="#5090E0" stop-opacity="0.38"/>
    </linearGradient>

    <!-- Iris — electric multi-stop blue -->
    <radialGradient id="irisMain" cx="35%" cy="28%" r="72%">
      <stop offset="0%"   stop-color="#A0D4FF"/>
      <stop offset="18%"  stop-color="#6AB4FF"/>
      <stop offset="48%"  stop-color="#4B96FF"/>
      <stop offset="76%"  stop-color="#2060C0"/>
      <stop offset="100%" stop-color="#0E2A60"/>
    </radialGradient>

    <!-- Iris ring detail -->
    <radialGradient id="irisRing" cx="50%" cy="50%" r="50%">
      <stop offset="70%"  stop-color="#3070C8" stop-opacity="0"/>
      <stop offset="88%"  stop-color="#1840A0" stop-opacity="0.65"/>
      <stop offset="100%" stop-color="#0D2060" stop-opacity="0.9"/>
    </radialGradient>

    <!-- Sclera (eye white) — slightly blue-tinted, not stark white -->
    <radialGradient id="scleraGrad" cx="42%" cy="38%" r="62%">
      <stop offset="0%"   stop-color="#ECF2F8"/>
      <stop offset="70%"  stop-color="#E0EAF4"/>
      <stop offset="100%" stop-color="#D0DDE8"/>
    </radialGradient>

    <!-- Hair — dark with blue-black depth -->
    <linearGradient id="hairMain" x1="0%" y1="0%" x2="100%" y2="100%">
      <stop offset="0%"   stop-color="#1A1C28"/>
      <stop offset="45%"  stop-color="#131520"/>
      <stop offset="100%" stop-color="#0C0D15"/>
    </linearGradient>

    <!-- Hair highlight streak -->
    <linearGradient id="hairSheen" x1="0%" y1="0%" x2="100%" y2="0%">
      <stop offset="0%"   stop-color="#2A2E48" stop-opacity="0"/>
      <stop offset="40%"  stop-color="#383C5A" stop-opacity="0.75"/>
      <stop offset="100%" stop-color="#2A2E48" stop-opacity="0"/>
    </linearGradient>

    <!-- Outfit — near-black with micro-texture feel -->
    <linearGradient id="outfitMain" x1="0%" y1="0%" x2="85%" y2="100%">
      <stop offset="0%"   stop-color="#222230"/>
      <stop offset="50%"  stop-color="#181820"/>
      <stop offset="100%" stop-color="#111118"/>
    </linearGradient>
    <linearGradient id="outfitEdge" x1="0%" y1="0%" x2="100%" y2="0%">
      <stop offset="0%"   stop-color="#2A2A3A"/>
      <stop offset="100%" stop-color="#141420"/>
    </linearGradient>

    <!-- Collar accent glow gradient -->
    <linearGradient id="collarGlow" x1="0%" y1="0%" x2="100%" y2="0%">
      <stop offset="0%"   stop-color="#4B96FF" stop-opacity="0"/>
      <stop offset="40%"  stop-color="#4B96FF" stop-opacity="0.9"/>
      <stop offset="60%"  stop-color="#65A6FF" stop-opacity="0.9"/>
      <stop offset="100%" stop-color="#4B96FF" stop-opacity="0"/>
    </linearGradient>

    <!-- Pupil depth gradient -->
    <radialGradient id="pupilGrad" cx="38%" cy="32%" r="65%">
      <stop offset="0%"   stop-color="#0A0A1A"/>
      <stop offset="60%"  stop-color="#040408"/>
      <stop offset="100%" stop-color="#010104"/>
    </radialGradient>

    <!-- Clip path for face -->
    <clipPath id="faceClip">
      <path d="M 75 180 Q 75 92 160 84 Q 245 92 245 180 Q 245 238 233 262 Q 218 284 196 292 Q 178 300 160 300 Q 142 300 124 292 Q 102 284 87 262 Q 75 238 75 180 Z"/>
    </clipPath>
  </defs>

  <!-- ═══════════════════════════════════════════════════════════ -->
  <!-- LAYER: background                                           -->
  <!-- ═══════════════════════════════════════════════════════════ -->
  <g id="layer-background">
    <rect width="320" height="420" fill="#0F0F11"/>
    <!-- Blue aura behind character -->
    <ellipse cx="160" cy="165" rx="150" ry="165" fill="url(#bgAura)"/>
    <!-- Very faint secondary aura ring -->
    <ellipse cx="160" cy="165" rx="130" ry="145" fill="none"
             stroke="#4B96FF" stroke-width="0.5" opacity="0.06"/>
  </g>

  <!-- ═══════════════════════════════════════════════════════════ -->
  <!-- LAYER: clothing (shoulders + collar)                        -->
  <!-- ═══════════════════════════════════════════════════════════ -->
  <g id="layer-clothing">
    <!-- Left shoulder body -->
    <path d="M -8 420 L -8 328 Q 12 292 62 270
             Q 100 256 130 276 Q 148 290 152 326 L 152 420 Z"
          fill="url(#outfitMain)"/>
    <!-- Right shoulder body -->
    <path d="M 328 420 L 328 328 Q 308 292 258 270
             Q 220 256 190 276 Q 172 290 168 326 L 168 420 Z"
          fill="url(#outfitMain)"/>
    <!-- Center chest panel -->
    <path d="M 152 326 Q 160 314 168 326 L 172 420 L 148 420 Z"
          fill="#16161E"/>

    <!-- Outer shoulder edge highlights (lit side) -->
    <path d="M -8 328 Q 10 295 60 272"
          stroke="#2E2E40" stroke-width="1.5" fill="none" opacity="0.8"/>
    <path d="M 328 328 Q 310 295 260 272"
          stroke="#2E2E40" stroke-width="1.5" fill="none" opacity="0.8"/>

    <!-- Shoulder surface gloss -->
    <path d="M 18 340 Q 45 305 90 285 Q 115 272 138 282"
          stroke="#353548" stroke-width="1" fill="none" opacity="0.4"/>
    <path d="M 302 340 Q 275 305 230 285 Q 205 272 182 282"
          stroke="#353548" stroke-width="1" fill="none" opacity="0.4"/>

    <!-- Collar thick base left -->
    <path d="M 64 270 Q 108 252 152 272"
          stroke="#252538" stroke-width="16" fill="none" stroke-linecap="round"/>
    <!-- Collar thick base right -->
    <path d="M 168 272 Q 212 252 256 270"
          stroke="#252538" stroke-width="16" fill="none" stroke-linecap="round"/>

    <!-- Collar top edge left -->
    <path d="M 66 264 Q 110 248 152 268"
          stroke="#323248" stroke-width="3" fill="none" stroke-linecap="round" opacity="0.7"/>
    <!-- Collar top edge right -->
    <path d="M 168 268 Q 210 248 254 264"
          stroke="#323248" stroke-width="3" fill="none" stroke-linecap="round" opacity="0.7"/>

    <!-- ACCENT GLOW SEAM LEFT -->
    <path d="M 68 263 Q 112 247 152 266"
          stroke="url(#collarGlow)" stroke-width="1.8" fill="none" opacity="0.95"/>
    <!-- ACCENT GLOW SEAM RIGHT -->
    <path d="M 168 266 Q 208 247 252 263"
          stroke="url(#collarGlow)" stroke-width="1.8" fill="none" opacity="0.95"/>

    <!-- Glow bloom under seam left -->
    <path d="M 70 265 Q 112 249 152 268"
          stroke="#4B96FF" stroke-width="6" fill="none" opacity="0.07" stroke-linecap="round"/>
    <!-- Glow bloom under seam right -->
    <path d="M 168 268 Q 208 249 250 265"
          stroke="#4B96FF" stroke-width="6" fill="none" opacity="0.07" stroke-linecap="round"/>

    <!-- Sub-seam inner (highlight stripe) left -->
    <path d="M 72 270 Q 114 255 152 273"
          stroke="#65A6FF" stroke-width="0.6" fill="none" opacity="0.4"/>
    <!-- Sub-seam inner right -->
    <path d="M 168 273 Q 206 255 248 270"
          stroke="#65A6FF" stroke-width="0.6" fill="none" opacity="0.4"/>

    <!-- Blue rim light cast on lower shoulders -->
    <path d="M 240 275 Q 268 295 285 330"
          stroke="#4B96FF" stroke-width="12" fill="none" opacity="0.06" stroke-linecap="round"/>
  </g>

  <!-- ═══════════════════════════════════════════════════════════ -->
  <!-- LAYER: neck                                                  -->
  <!-- ═══════════════════════════════════════════════════════════ -->
  <g id="layer-neck">
    <!-- Neck body -->
    <path d="M 136 322 Q 136 280 141 264 L 179 264 Q 184 280 184 322
             Q 172 314 160 314 Q 148 314 136 322 Z"
          fill="url(#skinNeck)"/>
    <!-- Left neck shadow -->
    <path d="M 136 300 Q 138 270 141 264 L 135 265 Q 136 278 136 300 Z"
          fill="#8AA0B4" opacity="0.5"/>
    <!-- Right neck shadow (stronger, darker side) -->
    <path d="M 184 300 Q 182 270 179 264 L 185 265 Q 184 278 184 300 Z"
          fill="#6A8AA0" opacity="0.45"/>
    <!-- Neck center tendon hint -->
    <path d="M 148 296 Q 160 302 172 296"
          stroke="#98AEC0" stroke-width="0.7" fill="none" opacity="0.28"/>
    <!-- Adam's apple (subtle bump) -->
    <ellipse cx="160" cy="284" rx="6" ry="4" fill="#B8CAD8" opacity="0.22"/>
    <!-- Neck rim light (right) -->
    <path d="M 180 270 Q 183 290 183 312"
          stroke="#3070C0" stroke-width="4" fill="none" opacity="0.18" stroke-linecap="round"/>
  </g>

  <!-- ═══════════════════════════════════════════════════════════ -->
  <!-- LAYER: face-base                                            -->
  <!-- ═══════════════════════════════════════════════════════════ -->
  <g id="layer-face-base">
    <!-- Main face shape -->
    <path id="face-shape"
          d="M 75 180 Q 75 92 160 84 Q 245 92 245 180
             Q 245 238 233 262 Q 218 284 196 292
             Q 178 300 160 300 Q 142 300 124 292
             Q 102 284 87 262 Q 75 238 75 180 Z"
          fill="url(#skinMain)"/>

    <!-- Key light overlay (upper left bright area) -->
    <path d="M 75 180 Q 75 92 160 84 Q 245 92 245 180
             Q 245 238 233 262 Q 218 284 196 292
             Q 178 300 160 300 Q 142 300 124 292
             Q 102 284 87 262 Q 75 238 75 180 Z"
          fill="url(#keyLight)"/>

    <!-- Shadow fill overlay -->
    <path d="M 75 180 Q 75 92 160 84 Q 245 92 245 180
             Q 245 238 233 262 Q 218 284 196 292
             Q 178 300 160 300 Q 142 300 124 292
             Q 102 284 87 262 Q 75 238 75 180 Z"
          fill="url(#faceShadow)"/>

    <!-- Rim light on right side -->
    <path d="M 75 180 Q 75 92 160 84 Q 245 92 245 180
             Q 245 238 233 262 Q 218 284 196 292
             Q 178 300 160 300 Q 142 300 124 292
             Q 102 284 87 262 Q 75 238 75 180 Z"
          fill="url(#rimLight)"/>

    <!-- SSS warmth: left cheek -->
    <ellipse cx="100" cy="210" rx="35" ry="22"
             fill="url(#sssLeft)" filter="url(#sssBloom)" opacity="0.9"
             transform="rotate(-12 100 210)"/>
    <!-- SSS warmth: right cheek (cooler) -->
    <ellipse cx="220" cy="210" rx="35" ry="22"
             fill="url(#sssRight)" opacity="0.7"
             transform="rotate(12 220 210)"/>

    <!-- Forehead highlight (key light catchment) -->
    <ellipse cx="146" cy="122" rx="38" ry="20"
             fill="#EAF2FF" opacity="0.42" transform="rotate(-8 146 122)"/>
    <!-- Temple area lighter -->
    <ellipse cx="96"  cy="155" rx="14" ry="22"
             fill="#D8E8F4" opacity="0.2" transform="rotate(-20 96 155)"/>

    <!-- Squared Chin form -->
    <path d="M 146 276 L 174 276 Q 168 288 160 290 Q 152 288 146 276 Z"
          fill="#A4B8C8" opacity="0.45"/>
    <!-- Chin highlight -->
    <ellipse cx="160" cy="282" rx="10" ry="3"
             fill="#C8D8E8" opacity="0.3"/>

    <!-- Jaw-line subtle darkening -->
    <path d="M 87 260 Q 100 282 124 292"
          stroke="#90A8BC" stroke-width="2" fill="none" opacity="0.2" stroke-linecap="round"/>
    <path d="M 233 260 Q 220 282 196 292"
          stroke="#80A0B8" stroke-width="2" fill="none" opacity="0.15" stroke-linecap="round"/>
  </g>

  <!-- ═══════════════════════════════════════════════════════════ -->
  <!-- LAYER: circuit-traces (temple engravings)                   -->
  <!-- ═══════════════════════════════════════════════════════════ -->
  <g id="layer-circuit-traces">
    <!-- LEFT TEMPLE — primary branch -->
    <polyline points="78,162  94,166  100,159  116,159"
              stroke="#7888A8" stroke-width="0.9" fill="none" opacity="0.52"/>
    <!-- LEFT — secondary branch -->
    <polyline points="80,172  92,176  97,171"
              stroke="#7888A8" stroke-width="0.65" fill="none" opacity="0.36"/>
    <!-- LEFT — tertiary micro branch -->
    <line x1="94" y1="166" x2="94" y2="172"
          stroke="#7888A8" stroke-width="0.55" opacity="0.28"/>
    <!-- LEFT — corner angle accent -->
    <polyline points="116,159  121,154  128,154"
              stroke="#6878A0" stroke-width="0.7" fill="none" opacity="0.32"/>

    <!-- LEFT node dots (glowing) -->
    <circle cx="116" cy="159" r="2.2" fill="#4B96FF" filter="url(#nodeBloom)" opacity="0.78"/>
    <circle cx="97"  cy="171" r="1.5" fill="#65A6FF" opacity="0.5"/>
    <circle cx="128" cy="154" r="1.2" fill="#4B96FF" opacity="0.4"/>

    <!-- RIGHT TEMPLE — primary branch -->
    <polyline points="242,162  226,166  220,159  204,159"
              stroke="#7888A8" stroke-width="0.9" fill="none" opacity="0.52"/>
    <!-- RIGHT — secondary branch -->
    <polyline points="240,172  228,176  223,171"
              stroke="#7888A8" stroke-width="0.65" fill="none" opacity="0.36"/>
    <!-- RIGHT — tertiary micro branch -->
    <line x1="226" y1="166" x2="226" y2="172"
          stroke="#7888A8" stroke-width="0.55" opacity="0.28"/>
    <!-- RIGHT — corner angle accent -->
    <polyline points="204,159  199,154  192,154"
              stroke="#6878A0" stroke-width="0.7" fill="none" opacity="0.32"/>

    <!-- RIGHT node dots (glowing) -->
    <circle cx="204" cy="159" r="2.2" fill="#4B96FF" filter="url(#nodeBloom)" opacity="0.78"/>
    <circle cx="223" cy="171" r="1.5" fill="#65A6FF" opacity="0.5"/>
    <circle cx="192" cy="154" r="1.2" fill="#4B96FF" opacity="0.4"/>
  </g>

  <!-- ═══════════════════════════════════════════════════════════ -->
  <!-- LAYER: hair                                                  -->
  <!-- ═══════════════════════════════════════════════════════════ -->
  <g id="layer-hair" filter="url(#hairDepth)">
    <!-- HAIR MASS — cropped male crop hairstyle with spikes -->
    <path d="M 82 185 Q 80 130 98 105 Q 122 68 160 68 Q 198 68 222 105 Q 240 130 238 185
             L 232 155 L 224 158 Q 216 130 190 92 Q 160 92 130 92 Q 104 130 L 96 158 L 88 155 Z"
          fill="url(#hairMain)"/>

    <!-- Hair spikes volume (cropped tech look) -->
    <path d="M 92 110 Q 108 75 160 72 Q 212 75 228 110
             Q 210 86 160 84 Q 110 86 92 110 Z"
          fill="#1C1E2E"/>

    <!-- Sideburn left -->
    <path d="M 82 185 L 80 195 L 86 195 Z"
          fill="#14151E" opacity="0.95"/>
    <!-- Sideburn right -->
    <path d="M 238 185 L 240 195 L 234 195 Z"
          fill="#14151E" opacity="0.95"/>

    <!-- Hairline fine edge left (slight irregular) -->
    <path d="M 80 138 Q 84 125 90 115 Q 86 128 82 145 Z"
          fill="#0E0F18" opacity="0.8"/>
    <!-- Hairline fine edge right -->
    <path d="M 240 138 Q 236 125 230 115 Q 234 128 238 145 Z"
          fill="#0E0F18" opacity="0.8"/>

    <!-- Hair sheen highlight (center streak) -->
    <path d="M 122 82 Q 140 74 162 74 Q 148 78 138 80 Q 128 82 122 82 Z"
          fill="url(#hairSheen)" opacity="0.7"/>
    <!-- Secondary sheen -->
    <path d="M 148 76 Q 160 72 174 75 Q 168 77 160 78 Q 152 79 148 76 Z"
          fill="#30344E" opacity="0.55"/>

    <!-- Hair-to-skin gradient edge (softens hairline) -->
    <path d="M 80 140 Q 80 132 84 122" stroke="#C0CCDA" stroke-width="2"
          fill="none" opacity="0.08" stroke-linecap="round"/>
    <path d="M 240 140 Q 240 132 236 122" stroke="#C0CCDA" stroke-width="2"
          fill="none" opacity="0.06" stroke-linecap="round"/>
  </g>

  <!-- ═══════════════════════════════════════════════════════════ -->
  <!-- LAYER: brows                                                 -->
  <!-- ═══════════════════════════════════════════════════════════ -->
  <g id="layer-brows">
    <!-- LEFT BROW — layered for thickness and realism -->
    <!-- Brow fill shadow base -->
    <path id="brow-left-fill"
          d="M 102 150 Q 120 140 142 145 Q 120 142 102 152 Z"
          fill="#1C1E28" opacity="0.6"/>
    <!-- Main brow stroke -->
    <path id="brow-left"
          d="M 102 151 Q 118 141 138 146"
          stroke="#1E2030" stroke-width="3.2" fill="none" stroke-linecap="round"/>
    <!-- Brow upper highlight edge -->
    <path d="M 104 150 Q 118 141 136 146"
          stroke="#2E3042" stroke-width="1.2" fill="none" stroke-linecap="round" opacity="0.55"/>
    <!-- Brow inner fine hairs suggestion -->
    <path d="M 103 153 Q 110 146 118 147"
          stroke="#16182A" stroke-width="1.5" fill="none" stroke-linecap="round" opacity="0.4"/>

    <!-- RIGHT BROW -->
    <path id="brow-right-fill"
          d="M 178 145 Q 200 140 218 150 Q 200 142 178 147 Z"
          fill="#1C1E28" opacity="0.6"/>
    <path id="brow-right"
          d="M 182 146 Q 200 141 218 151"
          stroke="#1E2030" stroke-width="3.2" fill="none" stroke-linecap="round"/>
    <path d="M 184 146 Q 200 141 216 150"
          stroke="#2E3042" stroke-width="1.2" fill="none" stroke-linecap="round" opacity="0.55"/>
    <path d="M 218 153 Q 210 146 202 147"
          stroke="#16182A" stroke-width="1.5" fill="none" stroke-linecap="round" opacity="0.4"/>
  </g>

  <!-- ═══════════════════════════════════════════════════════════ -->
  <!-- LAYER: eyes-white (sclera)                                  -->
  <!-- ═══════════════════════════════════════════════════════════ -->
  <g id="layer-eyes-white">
    <!-- LEFT sclera -->
    <ellipse id="sclera-left"  cx="122" cy="172" rx="23" ry="15" fill="url(#scleraGrad)"/>
    <!-- RIGHT sclera -->
    <ellipse id="sclera-right" cx="198" cy="172" rx="23" ry="15" fill="url(#scleraGrad)"/>

    <!-- Sclera inner shadow (depth at edges) -->
    <ellipse cx="122" cy="172" rx="23" ry="15" fill="none"
             stroke="#B0C0D4" stroke-width="2" opacity="0.3"/>
    <ellipse cx="198" cy="172" rx="23" ry="15" fill="none"
             stroke="#B0C0D4" stroke-width="2" opacity="0.3"/>

    <!-- Upper sclera shadow (eyelid cast shadow) -->
    <ellipse cx="122" cy="162" rx="20" ry="7" fill="#C0D0E0" opacity="0.35"/>
    <ellipse cx="198" cy="162" rx="20" ry="7" fill="#C0D0E0" opacity="0.35"/>

    <!-- Caruncle (inner corner of eye) -->
    <ellipse cx="100" cy="173" rx="4" ry="3" fill="#D4A0A8" opacity="0.38"
             transform="rotate(-5 100 173)"/>
    <ellipse cx="220" cy="173" rx="4" ry="3" fill="#D4A0A8" opacity="0.38"
             transform="rotate(5 220 173)"/>
  </g>

  <!-- ═══════════════════════════════════════════════════════════ -->
  <!-- LAYER: iris                                                  -->
  <!-- ═══════════════════════════════════════════════════════════ -->
  <g id="layer-iris" filter="url(#irisGlow)">
    <!-- LEFT iris base -->
    <ellipse id="iris-left"  cx="122" cy="172" rx="13.5" ry="13.5" fill="url(#irisMain)"/>
    <!-- RIGHT iris base -->
    <ellipse id="iris-right" cx="198" cy="172" rx="13.5" ry="13.5" fill="url(#irisMain)"/>
  </g>

  <!-- Iris limbal ring (dark outer ring — no glow filter) -->
  <g id="layer-iris-detail">
    <ellipse cx="122" cy="172" rx="13.5" ry="13.5" fill="url(#irisRing)"/>
    <ellipse cx="198" cy="172" rx="13.5" ry="13.5" fill="url(#irisRing)"/>
    <!-- Fine radial lines suggestion inside iris -->
    <ellipse cx="122" cy="172" rx="9" ry="9" fill="none"
             stroke="#2860C8" stroke-width="0.8" opacity="0.35"/>
    <ellipse cx="198" cy="172" rx="9" ry="9" fill="none"
             stroke="#2860C8" stroke-width="0.8" opacity="0.35"/>
  </g>

  <!-- ═══════════════════════════════════════════════════════════ -->
  <!-- LAYER: pupils                                                -->
  <!-- ═══════════════════════════════════════════════════════════ -->
  <g id="layer-pupils">
    <!-- LEFT pupil -->
    <ellipse id="pupil-left" cx="122" cy="172" rx="6.5" ry="6.5" fill="url(#pupilGrad)"/>
    <!-- LEFT catchlight A (main — key light reflection) -->
    <ellipse id="catch-left-main" cx="116" cy="166" rx="3.2" ry="2.5"
             fill="white" opacity="0.95"/>
    <!-- LEFT catchlight B (secondary — fill light) -->
    <ellipse cx="127" cy="178" rx="1.8" ry="1.4"
             fill="white" opacity="0.42"/>
    <!-- LEFT catchlight C (rim light — blue tint) -->
    <ellipse cx="129" cy="168" rx="1.2" ry="0.9"
             fill="#80C0FF" opacity="0.55"/>

    <!-- RIGHT pupil -->
    <ellipse id="pupil-right" cx="198" cy="172" rx="6.5" ry="6.5" fill="url(#pupilGrad)"/>
    <!-- RIGHT catchlights -->
    <ellipse id="catch-right-main" cx="192" cy="166" rx="3.2" ry="2.5"
             fill="white" opacity="0.95"/>
    <ellipse cx="203" cy="178" rx="1.8" ry="1.4"
             fill="white" opacity="0.42"/>
    <ellipse cx="205" cy="168" rx="1.2" ry="0.9"
             fill="#80C0FF" opacity="0.55"/>
  </g>

  <!-- ═══════════════════════════════════════════════════════════ -->
  <!-- LAYER: eyelids (upper + lower lid lines + lashes)           -->
  <!-- ═══════════════════════════════════════════════════════════ -->
  <g id="layer-eyelids">
    <!-- LEFT UPPER LID — smooth almond curve -->
    <path d="M 99 168 Q 122 158 145 168"
          stroke="#98AABC" stroke-width="1.8" fill="none" stroke-linecap="round"/>
    <!-- LEFT LOWER LID -->
    <path d="M 100 177 Q 122 184 144 177"
          stroke="#90A0B2" stroke-width="1.1" fill="none" stroke-linecap="round"/>
    <!-- Left lid fold crease (inner) -->
    <path d="M 99 168 Q 104 163 112 163"
          stroke="#8898AA" stroke-width="0.8" fill="none" opacity="0.5"/>

    <!-- RIGHT UPPER LID -->
    <path d="M 175 168 Q 198 158 221 168"
          stroke="#98AABC" stroke-width="1.8" fill="none" stroke-linecap="round"/>
    <!-- RIGHT LOWER LID -->
    <path d="M 176 177 Q 198 184 220 177"
          stroke="#90A0B2" stroke-width="1.1" fill="none" stroke-linecap="round"/>
    <!-- Right lid fold crease -->
    <path d="M 221 168 Q 216 163 208 163"
          stroke="#8898AA" stroke-width="0.8" fill="none" opacity="0.5"/>

    <!-- LEFT UPPER LASHES (short sharp masculine edge) -->
    <path d="M 131 160 L 135 154" stroke="#1A1C2A" stroke-width="1.6" fill="none"/>
    <path d="M 138 163 L 143 158" stroke="#1A1C2A" stroke-width="1.6" fill="none"/>

    <!-- RIGHT UPPER LASHES -->
    <path d="M 182 163 L 177 158" stroke="#1A1C2A" stroke-width="1.6" fill="none"/>
    <path d="M 189 160 L 185 154" stroke="#1A1C2A" stroke-width="1.6" fill="none"/>
  </g>

  <!-- ═══════════════════════════════════════════════════════════ -->
  <!-- LAYER: nose                                                  -->
  <!-- ═══════════════════════════════════════════════════════════ -->
  <g id="layer-nose">
    <!-- Nose bridge (very subtle side shadow) -->
    <path d="M 156 192 Q 150 210 148 224 Q 154 232 160 232 Q 166 232 172 224 Q 170 210 164 192"
          stroke="#A4B4C6" stroke-width="1" fill="none" opacity="0.42" stroke-linecap="round"/>
    <!-- Nose tip highlight -->
    <ellipse cx="160" cy="228" rx="6.5" ry="3.8" fill="#D8E8F4" opacity="0.36"/>
    <!-- Nose tip form shadow -->
    <ellipse cx="160" cy="230" rx="5" ry="3" fill="#96AABC" opacity="0.22"/>
    <!-- Nostril left -->
    <ellipse cx="153" cy="231" rx="4.5" ry="2.8" fill="#98AABC" opacity="0.32"
             transform="rotate(-8 153 231)"/>
    <!-- Nostril right -->
    <ellipse cx="167" cy="231" rx="4.5" ry="2.8" fill="#8898AA" opacity="0.28"
             transform="rotate(8 167 231)"/>
    <!-- Nose wing left subtle shadow -->
    <path d="M 146 226 Q 145 232 148 235"
          stroke="#9AAABA" stroke-width="0.8" fill="none" opacity="0.35"/>
    <!-- Nose wing right subtle shadow -->
    <path d="M 174 226 Q 175 232 172 235"
          stroke="#9AAABA" stroke-width="0.8" fill="none" opacity="0.35"/>
  </g>

  <!-- ═══════════════════════════════════════════════════════════ -->
  <!-- LAYER: mouth                                                 -->
  <!-- ═══════════════════════════════════════════════════════════ -->
  <g id="layer-mouth">
    <!-- Philtrum (medial groove above lip) -->
    <path d="M 155 247 Q 155 242 157 240 Q 160 238 163 240 Q 165 242 165 247"
          stroke="#BBABB8" stroke-width="0.7" fill="none" opacity="0.38"/>

    <!-- Upper lip shape -->
    <path id="upper-lip"
          d="M 136 252 Q 145 247 152 249 Q 156 248 160 248
             Q 164 248 168 249 Q 175 247 184 252"
          stroke="#8C6878" stroke-width="1.6" fill="none" stroke-linecap="round"/>
    <!-- Upper lip bow highlight -->
    <path d="M 148 250 Q 156 246 164 250"
          stroke="#C898A8" stroke-width="0.8" fill="none" opacity="0.42"/>

    <!-- Main mouth line / idle smile -->
    <path id="mouth-idle"
          d="M 134 256 Q 148 265 160 266 Q 172 265 186 256"
          stroke="#7A6070" stroke-width="2.4" fill="none" stroke-linecap="round"/>

    <!-- Lower lip full highlight -->
    <path d="M 143 260 Q 160 268 177 260 Q 168 272 160 273 Q 152 272 143 260 Z"
          fill="#C4A8B4" opacity="0.25"/>
    <!-- Lower lip specular -->
    <ellipse cx="160" cy="265" rx="10" ry="4" fill="#DCC0C8" opacity="0.3"
             transform="rotate(-2 160 265)"/>

    <!-- Mouth corners (subtle) -->
    <path d="M 133 256 Q 131 252 133 249"
          stroke="#7A6070" stroke-width="1.3" fill="none" stroke-linecap="round" opacity="0.55"/>
    <path d="M 187 256 Q 189 252 187 249"
          stroke="#7A6070" stroke-width="1.3" fill="none" stroke-linecap="round" opacity="0.55"/>
  </g>

  <!-- ═══════════════════════════════════════════════════════════ -->
  <!-- LAYER: glow-overlay (eye bloom + circuit light)             -->
  <!-- ═══════════════════════════════════════════════════════════ -->
  <g id="layer-glow-overlay">
    <!-- Left iris soft ambient bloom -->
    <ellipse cx="122" cy="172" rx="22" ry="18" fill="#4B96FF" opacity="0.11"/>
    <!-- Right iris soft ambient bloom -->
    <ellipse cx="198" cy="172" rx="22" ry="18" fill="#4B96FF" opacity="0.11"/>

    <!-- Blue cast from eyes on upper face -->
    <ellipse cx="160" cy="156" rx="65" ry="28" fill="#4B96FF" opacity="0.038"/>

    <!-- Left circuit node glow bloom -->
    <circle cx="116" cy="159" r="5.5" fill="#4B96FF" opacity="0.25"/>
    <!-- Right circuit node glow bloom -->
    <circle cx="204" cy="159" r="5.5" fill="#4B96FF" opacity="0.25"/>
  </g>
</svg>
